<svg xmlns="http://www.w3.org/2000/svg" width="65.987" height="10.345" viewBox="0 0 65.987 10.345">
  <g id="Group_22" data-name="Group 22" transform="translate(-1179.843 -35)">
    <g id="Group_6" data-name="Group 6" transform="translate(1179.843 35)">
      <path id="Path_10" data-name="Path 10" d="M1.946,14.067.112,17.329H3.722l1.891-3.261Z" transform="translate(-0.112 -7.042)" fill="#d22630"/>
      <path id="Path_11" data-name="Path 11" d="M9.239,0,7.159,3.638,11.017,10.3h4.117v0h3.434V6.032l1.963,4.313h2.813l2-4.313V10.3h3.425V.893H24.085L21.9,5.583,19.76.883l-4.626.01v9.368Z" transform="translate(-3.64 0)" fill="#fff"/>
      <path id="Path_12" data-name="Path 12" d="M52.545,11.173h8.64V8.522H56.02V7.37h5.166V4.943H56.02V4.281h5.166V1.763h-8.64Z" transform="translate(-26.358 -0.882)" fill="#fff" fill-rule="evenodd"/>
      <path id="Path_13" data-name="Path 13" d="M92.542,11.186h8.672V8.533H96.029V7.378h5.185V4.956H96.029V4.293h5.185V1.771H92.542Z" transform="translate(-46.379 -0.886)" fill="#fff" fill-rule="evenodd"/>
      <path id="Path_14" data-name="Path 14" d="M71.085,4.266h3.284v6.893h3.454V4.266h3.324V1.748H71.085Z" transform="translate(-35.639 -0.875)" fill="#fff" fill-rule="evenodd"/>
      <path id="Path_15" data-name="Path 15" d="M118.164,5.52,121.6,1.748h-3.846L115.4,4.327V1.748h-3.615v9.411H115.4V8.508l.391-.479,1.872,3.13H122Z" transform="translate(-56.011 -0.875)" fill="#fff" fill-rule="evenodd"/>
    </g>
  </g>
</svg>
