<svg xmlns="http://www.w3.org/2000/svg" width="116.529" height="35.221" viewBox="0 0 116.529 35.221">
  <g id="layer1" transform="translate(5.7 -343.24)">
    <g id="g9179" transform="translate(-5.7 343.24)">
      <path id="Fill-1" d="M2.4,343.392c3.034-.143,6.624.5,7.293,2.644,1.1,3.509-4.46,8.625-9.3,11.136a4.779,4.779,0,0,1-2.206.743.344.344,0,0,1-.237-.522,8.52,8.52,0,0,1,2-1.937c5.45-4.257,7.222-7.38,6.193-8.646-.66-.81-3.423-1.374-6.292-1.374-.779,0-2.826.181-3.036-.54-.171-.591,2.576-1.362,5.588-1.5" transform="translate(14.053 -343.373)" fill="#2c2a29" fill-rule="evenodd"/>
      <path id="Fill-3" d="M4.2,347.3c2.6-.152,5.761.3,7.536,1.66a3.186,3.186,0,0,1,1.144,3.34c-1.024,4.04-4.848,8.927-13.344,12.683-2.7,1.194-4.826,1.651-5.272,1.331-.479-.345.914-3.01,1.333-3.9a72.686,72.686,0,0,1,4.7-8.211c.609-.94,1.548-2.571,2.4-2.44.761.117-.13,1.85-.717,2.952-.986,1.849-3.7,6.985-2.8,7.292,1.98.679,11.27-6.388,9.9-10.324-.635-1.827-4.668-2-7.209-2-1.155,0-3.679.273-3.819-.612-.151-.816,3.834-1.638,6.151-1.775" transform="translate(5.832 -331.198)" fill="#2c2a29" fill-rule="evenodd"/>
      <path id="Fill-5" d="M12.237,346.456c1.561.282,2.834.5,3.126,1.16.328.747-1.373.792-2.23.81-4.108.079-6.585.16-6.708,1.556-.161,1.8,1.755,3.605,3.648,6.142,1.729,2.315,3.695,4.6,3.128,6.73-.706,2.654-3.96,3.215-7.057,3.216a37.8,37.8,0,0,1-6.959-.708c-1.471-.29-1.253-1.017-.86-1.251.437-.261,2.938-.267,4.676-.371,1.43-.084,5.585-.082,6.232-1.146.794-1.3-1.15-3.532-2.936-5.867-2.228-2.914-4.676-5.921-3.38-8.118,1.676-2.842,6.579-2.647,9.32-2.152" transform="translate(17.889 -334.676)" fill="#2c2a29" fill-rule="evenodd"/>
      <path id="Fill-6" d="M60.367,354.423c3.3,0,4.57-1.129,5.092-3.737l.782-4.063c.052-.272-.11-.354-.317-.354h-1.6l-.438,2.338-.251,1.244-.209,1.081c-.292,1.472-1.245,2.136-2.861,2.136-1.778,0-2.253-.647-1.975-2.136,0,0,.069-.372.092-.483l.368-1.842.439-2.338H57.9a.414.414,0,0,0-.454.354l-.784,4.063c-.535,2.865.89,3.737,3.707,3.737ZM4.331,358.83c-.239,1.122.639,1.664,2.423,2.772,1.949,1.21,2.4,1.3,2.216,1.94-.144.514-.655.535-1.534.535H3.963a.609.609,0,0,0-.692.515l-.139.712h4.38c2.005,0,3.262-.124,3.718-1.349a1.666,1.666,0,0,0-.322-1.826,4.785,4.785,0,0,0-1.243-.9c-2.5-1.415-3.158-1.579-3-2.264.089-.385.356-.4,1.3-.4H10.9a.609.609,0,0,0,.694-.515l.145-.743H8.021C5.916,357.307,4.652,357.319,4.331,358.83Zm19.317,0c-.238,1.122.64,1.664,2.422,2.772,1.952,1.21,2.4,1.3,2.217,1.94-.144.514-.656.535-1.534.535H23.28a.609.609,0,0,0-.693.515l-.138.712h4.38c2.005,0,3.261-.124,3.716-1.349a1.66,1.66,0,0,0-.32-1.826,4.8,4.8,0,0,0-1.245-.9c-2.5-1.415-3.156-1.579-3-2.264.088-.385.355-.4,1.3-.4h2.938a.608.608,0,0,0,.692-.515l.146-.743H27.338C25.233,357.307,23.97,357.319,23.648,358.83Zm48.955,0c-.237,1.122.641,1.664,2.421,2.772,1.952,1.21,2.4,1.3,2.216,1.94-.143.514-.654.535-1.531.535H72.235a.609.609,0,0,0-.693.515l-.138.712h4.381c2,0,3.26-.124,3.716-1.349a1.662,1.662,0,0,0-.321-1.826,4.78,4.78,0,0,0-1.245-.9c-2.5-1.415-3.157-1.579-3-2.264.087-.385.356-.4,1.3-.4h2.938a.608.608,0,0,0,.692-.515l.146-.743H76.294c-2.106,0-3.369.012-3.691,1.523ZM43.7,352.9a1.663,1.663,0,0,0-.322-1.826,4.821,4.821,0,0,0-1.245-.9c-2.5-1.415-3.156-1.577-3-2.263.089-.384.357-.4,1.3-.4h2.936a.61.61,0,0,0,.694-.513l.144-.747H40.488c-2.105,0-3.369.012-3.691,1.526-.237,1.121.641,1.665,2.423,2.772,1.951,1.21,2.4,1.3,2.217,1.941-.145.514-.656.534-1.533.534H36.431a.61.61,0,0,0-.694.515l-.137.713h4.38c2,0,3.262-.124,3.718-1.35Zm-9.332,0a1.667,1.667,0,0,0-.32-1.826,4.866,4.866,0,0,0-1.245-.9c-2.5-1.415-3.157-1.577-3-2.263.088-.384.354-.4,1.3-.4h2.935a.607.607,0,0,0,.693-.513l.147-.747H31.156c-2.105,0-3.368.012-3.69,1.526-.238,1.121.64,1.665,2.422,2.772,1.95,1.21,2.4,1.3,2.217,1.941-.143.514-.655.534-1.535.534H27.1a.611.611,0,0,0-.7.515l-.138.713h4.381c2,0,3.26-.124,3.717-1.35Zm40.74-6.627c-.4,0-.619.135-.678.433l-.157.8h3.141L76.1,354.246H77.51a.627.627,0,0,0,.7-.567l1.2-6.171h2.621c.372,0,.5-.164.566-.489l.144-.75ZM6.673,348.487a.373.373,0,0,0-.373.27l-1.068,5.488H9.957c2.646,0,4.48-.983,5.053-4.039.427-2.275-.559-3.937-3.255-3.937H6.04s-.012.056-.024.1c-.129.537-.061,1.129.842,1.129h4.154c2,0,2.284,1,1.885,2.759-.392,1.728-1.076,2.617-2.576,2.754H7.476l.879-4.527ZM73.985,353.5c.068-.349-.055-.485-.375-.485H69.331l1.26-6.475a.231.231,0,0,0-.244-.27H68.639l-1.55,7.977h6.751Zm-12.742,3.83H59.436l-3.5,3.108-2.289-3.108H51.844c-.3,0-.459.188-.521.513L49.872,365.3h1.534a.513.513,0,0,0,.559-.459l1.087-5.584,1.763,2.514a.469.469,0,0,0,.421.243h.793a.741.741,0,0,0,.516-.243l2.739-2.514L58.2,364.844c-.057.3.059.459.382.459h1.532l1.453-7.461c.061-.325-.024-.513-.321-.513Zm-19.111.513-1.45,7.461h7.37l.155-.8c.064-.326-.015-.434-.386-.434h-4.9l.416-2.14h4.328a.232.232,0,0,0,.235-.19l.165-.849a.149.149,0,0,0-.161-.189H43.579l.416-2.137h4.724c.223,0,.444,0,.5-.3l.181-.94H42.751a.564.564,0,0,0-.619.513Zm21.883,0L62.565,365.3h7.372l.153-.8c.064-.326-.014-.434-.385-.434h-4.9l.416-2.14h4.327a.229.229,0,0,0,.234-.19l.166-.849a.149.149,0,0,0-.161-.189H65.463l.415-2.137H70.6c.224,0,.445,0,.5-.3l.183-.94H64.635a.565.565,0,0,0-.62.513Zm-44.2-.244-.708,3.631c-1.236.38-4.438,1.074-3.938-1.494l.468-2.406H13.952a.373.373,0,0,0-.375.269l-.425,2.191c-.81,4.164,3.134,3.6,5.687,2.812l-.526,2.7h1.408a.628.628,0,0,0,.706-.566l1.438-7.408H20.161a.362.362,0,0,0-.348.269Zm21.054.479.147-.748H33.372c-.4,0-.62.134-.678.431l-.157.8h3.14L34.369,365.3h1.409a.629.629,0,0,0,.705-.566l1.2-6.172H40.3C40.674,358.565,40.8,358.4,40.867,358.077Zm-21.979-8.455c.3-1.554,1.206-2.116,2.822-2.116,1.708,0,2.157.641,1.879,2.116,0,0-.07.369-.094.48-.033.165-.109.594-.552.594H18.681l.208-1.074Zm-2.407,4.624H17.99l.439-2.319h4.7l-.439,2.319H24.2a.4.4,0,0,0,.439-.352l.785-4.028c.575-3.055-1.15-3.7-3.476-3.7-2.786,0-4.377.7-4.984,3.7l-.783,4.028c-.052.271.1.352.3.352ZM48.2,349.622c.3-1.554,1.205-2.116,2.822-2.116,1.709,0,2.156.641,1.879,2.116,0,0-.07.369-.095.48-.033.165-.109.594-.551.594H47.99l.209-1.074Zm-2.407,4.624H47.3l.44-2.319h4.7L52,354.246h1.509a.4.4,0,0,0,.439-.352l.783-4.028c.578-3.055-1.148-3.7-3.474-3.7-2.787,0-4.378.7-4.985,3.7l-.783,4.028c-.051.271.1.352.3.352Z" transform="translate(33.782 -334.677)" fill="#2c2a29" fill-rule="evenodd"/>
    </g>
  </g>
</svg>
