<svg xmlns="http://www.w3.org/2000/svg" width="138.525" height="22.04" viewBox="0 0 138.525 22.04">
  <g id="Ebene_x0020_1" transform="translate(-6.686 -9.254)">
    <path id="Path_4144" data-name="Path 4144" d="M193.97,10.027v4.125a16.442,16.442,0,0,0-5.706-1.215,4.57,4.57,0,0,0-2.363.536,1.547,1.547,0,0,0-.892,1.312c0,.688.667,1.3,2.009,1.848l3.879,1.888c3.136,1.495,4.692,3.48,4.692,5.974a5.826,5.826,0,0,1-2.491,4.951,10.867,10.867,0,0,1-6.649,1.848,30.852,30.852,0,0,1-3.447-.17,26.612,26.612,0,0,1-3.492-.658V26.149a20.509,20.509,0,0,0,6.509,1.215c2.332,0,3.492-.676,3.492-2.04,0-.679-.475-1.227-1.44-1.656l-4.308-1.836a8.868,8.868,0,0,1-3.544-2.621,5.931,5.931,0,0,1-1.148-3.6A5.472,5.472,0,0,1,181.465,11a10.628,10.628,0,0,1,6.369-1.742,23.683,23.683,0,0,1,2.944.216c1.105.149,2.168.332,3.191.557Z" transform="translate(-50.378)" fill-rule="evenodd"/>
    <path id="Path_4145" data-name="Path 4145" d="M21.575,10.027v4.125a16.427,16.427,0,0,0-5.7-1.215,4.563,4.563,0,0,0-2.363.536,1.547,1.547,0,0,0-.892,1.312c0,.688.676,1.3,2.019,1.848l3.879,1.888C21.639,20.017,23.2,22,23.2,24.5a5.848,5.848,0,0,1-2.481,4.951,10.9,10.9,0,0,1-6.659,1.848,30.91,30.91,0,0,1-3.45-.17,26.854,26.854,0,0,1-3.489-.658V26.149a20.6,20.6,0,0,0,6.506,1.215c2.332,0,3.492-.676,3.492-2.04,0-.679-.472-1.227-1.428-1.656l-4.308-1.836A8.7,8.7,0,0,1,7.837,19.21a5.855,5.855,0,0,1-1.151-3.6A5.453,5.453,0,0,1,9.083,11a10.573,10.573,0,0,1,6.36-1.742A23.858,23.858,0,0,1,18.4,9.47c1.1.149,2.159.332,3.179.557Z" fill-rule="evenodd"/>
    <path id="Path_4146" data-name="Path 4146" d="M34,9.8H40.32V31.067H34Z" transform="translate(-7.983 -0.16)" fill-rule="evenodd"/>
    <path id="Path_4147" data-name="Path 4147" d="M65.3,9.8v3.931H55.914v4.716h8.141v3.544H55.914v4.951h9.578v4.125H49.833V9.8Z" transform="translate(-12.609 -0.16)" fill-rule="evenodd"/>
    <path id="Path_4148" data-name="Path 4148" d="M102.7,9.8V31.067H96.8V17.04L90.684,31.262H87.043L81.157,17.04V31.067H76.892V9.8H84.6l5.264,13.019L95.376,9.8Z" transform="translate(-20.517 -0.16)" fill-rule="evenodd"/>
    <path id="Path_4149" data-name="Path 4149" d="M135.717,9.8v3.931h-9.335v4.716h8.141v3.544h-8.141v4.951h9.527v4.125H120.25V9.8Z" transform="translate(-33.188 -0.16)" fill-rule="evenodd"/>
    <path id="Path_4150" data-name="Path 4150" d="M165.792,9.8V31.067h-6.7l-7.52-13.64v13.64h-4.263V9.8h6.9l7.325,13.406V9.8Z" transform="translate(-41.095 -0.16)" fill-rule="evenodd"/>
  </g>
</svg>
