<svg xmlns="http://www.w3.org/2000/svg" width="155.026" height="21.766" viewBox="0 0 155.026 21.766">
  <path id="Path_84" data-name="Path 84" d="M16.022,152.07H21.5l-.7,6.74,4.915-6.74h5.9l-6.038,8.144,4.494,8.848H23.886l-3.51-7.023-.843,7.023H13.917l2.105-16.992ZM43.967,155.3c2.246,0,3.51.7,3.229,3.229l-.983,7.442c-.281,2.387-1.825,3.229-4.073,3.229H35.12c-1.965,0-3.651-.419-3.229-3.229l.842-7.442c.422-3.089,2.668-3.229,4.213-3.229Zm-2.527,4.494c0-.281.14-1.685-1.4-1.685a1.673,1.673,0,0,0-1.826,1.685l-.562,4.915c-.14.562-.281,1.685,1.264,1.685,1.685,0,1.826-1.123,1.826-1.685l.7-4.915ZM62.5,164.988v.983c-.422,2.527-1.826,3.229-4.073,3.229H51.27c-1.966,0-3.51-.419-3.229-3.229l.842-7.442C49.3,156,50.849,155.3,53.236,155.3h6.741c2.247,0,3.651.7,3.37,3.229l-.562,5.055H53.938l-.14.983c-.14.7-.14,1.825,1.4,1.825a1.835,1.835,0,0,0,1.825-1.4H62.5Zm-5.056-4.072.14-.983c.14-1.264-.562-1.825-1.4-1.825a1.832,1.832,0,0,0-1.825,1.685l-.14,1.123Zm13.481-3.229a2.483,2.483,0,0,1,.983-1.544,3.863,3.863,0,0,1,2.808-.842h1.685c1.965,0,3.51.562,3.229,3.369l-1.4,10.392H72.754l1.124-9.128c0-.562.14-1.825-1.4-1.825a1.85,1.85,0,0,0-1.825,2.106l-1.123,8.848H63.907l1.685-13.622h5.617l-.28,2.245Zm10.812-2.246h5.617l-1.685,13.622H80.056Zm.421-3.37h5.617l-.28,2.246H81.882Zm13.9,18.255.421-3.652c-.562,1.123-.7,1.264-1.123,1.544a3.8,3.8,0,0,1-2.667.844H90.868c-2.106,0-3.369-.7-3.089-3.231l.842-7.3c.422-2.387,1.826-3.229,3.931-3.229h1.967a2.771,2.771,0,0,1,3.089,2.106l.281-1.965h5.476l-1.685,15.166c-.421,2.948-2.808,3.229-4.493,3.229h-9.97l.421-3.51h8.426Zm1.264-10.532c0-.421.281-1.965-1.4-1.965-1.264,0-1.685.983-1.825,1.825l-.562,4.915a1.275,1.275,0,0,0,1.4,1.685,1.877,1.877,0,0,0,1.825-1.825l.562-4.635Zm15.868,4.213-4.634-.14c-2.248,0-4.214-.14-3.792-3.369l.14-1.825c.281-2.527,1.825-3.369,3.932-3.369h7.444c2.106,0,3.369.842,2.948,3.369l-.14.983h-5.476a1.543,1.543,0,0,0-.562-1.264,2.928,2.928,0,0,0-.842-.281,1.749,1.749,0,0,0-1.825,1.685l-.14.983,4.774.14c1.825,0,4.072.14,3.651,3.229l-.14,1.825c-.281,2.387-1.825,3.229-4.213,3.229h-6.882c-1.825,0-3.932-.138-3.51-3.229l.14-.842h5.478a1.275,1.275,0,0,0,.421.983,2.652,2.652,0,0,0,1.123.281,1.841,1.841,0,0,0,1.965-1.965l.141-.423Zm21.485.982v.983c-.421,2.527-1.825,3.229-4.072,3.229h-7.163c-1.965,0-3.51-.419-3.229-3.229l.983-7.442c.281-2.527,1.825-3.229,4.213-3.229h6.742c2.246,0,3.651.7,3.369,3.229l-.562,5.055h-8.848l-.14.983c-.14.7,0,1.825,1.4,1.825a1.837,1.837,0,0,0,1.827-1.4h5.476Zm-5.055-4.072.14-.983c.14-1.264-.421-1.825-1.4-1.825a1.832,1.832,0,0,0-1.827,1.685l-.14,1.123Zm15.164,9.409.421-3.652h-.14c-.421,1.123-.562,1.264-.983,1.544a3.8,3.8,0,0,1-2.667.844H139.6c-2.106,0-3.369-.7-3.089-3.231l.842-7.3c.281-2.387,1.825-3.229,3.932-3.229h1.965a2.771,2.771,0,0,1,3.089,2.106l.281-1.965h5.478l-1.825,15.166c-.281,2.948-2.669,3.229-4.354,3.229h-9.969l.421-3.51h8.425Zm1.263-10.532c0-.421.14-1.965-1.4-1.965-1.264,0-1.685.983-1.825,1.825l-.562,4.915a1.275,1.275,0,0,0,1.4,1.685,1.877,1.877,0,0,0,1.825-1.825l.562-4.635Zm14.886,10.532.421-3.652c-.562,1.123-.562,1.264-.983,1.544a4.153,4.153,0,0,1-2.808.844h-1.825c-1.965,0-3.369-.7-2.948-3.231l.842-7.3c.281-2.387,1.685-3.229,3.791-3.229h2.106c1.825,0,2.667.842,2.948,2.106l.281-1.965h5.617l-1.825,15.166c-.281,2.948-2.808,3.229-4.353,3.229h-9.969l.281-3.51h8.424Zm1.263-10.532c.14-.421.281-1.965-1.264-1.965-1.264,0-1.685.983-1.825,1.825l-.562,4.915c-.14.7,0,1.685,1.264,1.685a1.765,1.765,0,0,0,1.825-1.825l.562-4.635Zm-77.092,13.9.422-3.369H13.776l-.421,3.369Zm48.868,0,.421-3.369H103.647c-.281,1.825-.281,2.667-1.4,3.369h31.736Z" transform="translate(-13.355 -152.07)" fill="#f7f7f7" fill-rule="evenodd"/>
</svg>
