<svg id="time-svgrepo-com" xmlns="http://www.w3.org/2000/svg" width="10" height="10" viewBox="0 0 10 10">
  <path id="Path_523" data-name="Path 523" d="M5,0a5,5,0,1,0,5,5A5.006,5.006,0,0,0,5,0ZM5,9.277A4.277,4.277,0,1,1,9.278,5,4.282,4.282,0,0,1,5,9.277Z" transform="translate(-0.001 0)" fill="#707070"/>
  <path id="Path_524" data-name="Path 524" d="M40.308,22.171H40.3l-1.08.016V19.361a.361.361,0,1,0-.723,0v3.195s0,0,0,0a.352.352,0,0,0,0,.043c0,.009,0,.018,0,.027a.34.34,0,0,0,.014.045c0,.008,0,.016.007.023a.374.374,0,0,0,.023.042c0,.006.006.013.01.019a.38.38,0,0,0,.031.037l.013.016a.379.379,0,0,0,.038.031l.015.013a.35.35,0,0,0,.045.025l.016.008a.371.371,0,0,0,.057.018l.011,0a.367.367,0,0,0,.072.007h.006l1.447-.022a.361.361,0,0,0-.005-.723Z" transform="translate(-33.862 -16.711)" fill="#707070"/>
</svg>
